<?xml version="1.0" encoding="UTF-8"?>
<!-- Generator: Adobe Illustrator 14.0.0, SVG Export Plug-In . SVG Version: 6.00 Build 43363)  -->
<!DOCTYPE svg PUBLIC "-//W3C//DTD SVG 1.1//EN" "http://www.w3.org/Graphics/SVG/1.1/DTD/svg11.dtd">
<svg version="1.1" id="Ebene_1" xmlns="http://www.w3.org/2000/svg" xmlns:xlink="http://www.w3.org/1999/xlink" x="0px" y="0px" width="300px" height="70px" viewBox="0 0 300 70" enable-background="new 0 0 300 70" xml:space="preserve">
<g>
	<polygon fill="#E7B013" points="21.11,0 0.013,12.179 0.013,12.993 0,12.993 0,42.993 7.2,42.993 7.2,16.768 7.27,16.768    21.078,8.797 21.11,8.854 21.143,8.797 34.951,16.768 35.02,16.768 35.02,42.993 42.207,42.993 42.207,36.541 42.207,12.993    42.207,12.179  "/>
	<polygon fill="#ECAB13" points="21.11,13.398 11.2,19.119 11.2,42.998 19.269,47.657 19.269,36.786 22.951,36.786 22.951,47.656    31.02,42.998 31.02,19.119  "/>
</g>
<g>
	<path fill="#808184" d="M55.829,16.976c1.148-0.224,2.604-0.364,4.004-0.364c2.016,0,3.836,0.308,5.04,1.4   c1.148,1.036,1.512,2.296,1.512,3.92c0,2.016-1.008,3.836-2.912,4.704v0.056c1.288,0.532,1.932,1.708,2.296,3.752   c0.364,2.1,0.868,4.424,1.204,5.124h-3.836c-0.252-0.532-0.672-2.436-0.952-4.536c-0.336-2.324-0.924-2.996-2.128-2.996h-0.56   v7.532h-3.668V16.976z M59.497,25.208h0.672c1.596,0,2.492-1.288,2.492-2.94c0-1.624-0.644-2.744-2.268-2.8   c-0.336,0-0.7,0.028-0.896,0.112V25.208z"/>
	<path fill="#808184" d="M78.061,27.279h-4.284v5.096h4.844v3.192h-8.512V16.695h8.204v3.192h-4.536v4.34h4.284V27.279z"/>
	<path fill="#808184" d="M85.929,16.695v18.872h-3.668V16.695H85.929z"/>
	<path fill="#808184" d="M90.324,35.567V16.695h3.36l2.912,7.392c0.588,1.456,1.484,3.892,2.016,5.516h0.056   c-0.112-1.988-0.364-5.264-0.364-8.736v-4.172h3.22v18.872h-3.36l-2.884-7.168c-0.644-1.596-1.484-4.004-1.932-5.684h-0.056   c0.112,1.904,0.252,4.816,0.252,8.624v4.228H90.324z"/>
	<path fill="#808184" d="M113.844,27.279h-4.284v5.096h4.844v3.192h-8.512V16.695h8.204v3.192h-4.536v4.34h4.284V27.279z"/>
	<path fill="#808184" d="M118.043,16.976c1.148-0.224,2.604-0.364,4.004-0.364c2.016,0,3.836,0.308,5.039,1.4   c1.148,1.036,1.513,2.296,1.513,3.92c0,2.016-1.008,3.836-2.912,4.704v0.056c1.288,0.532,1.932,1.708,2.296,3.752   c0.364,2.1,0.868,4.424,1.204,5.124h-3.836c-0.252-0.532-0.672-2.436-0.952-4.536c-0.336-2.324-0.924-2.996-2.128-2.996h-0.561   v7.532h-3.667V16.976z M121.711,25.208h0.673c1.596,0,2.491-1.288,2.491-2.94c0-1.624-0.644-2.744-2.268-2.8   c-0.336,0-0.7,0.028-0.896,0.112V25.208z"/>
	<path fill="#808184" d="M134.282,20.083h-3.332v-3.388h10.36v3.388h-3.36v15.484h-3.668V20.083z"/>
	<path fill="#808184" d="M162.311,35.567c-0.616-0.616-1.176-1.232-2.072-2.128c-1.903,1.82-3.752,2.436-5.74,2.436   c-3.079,0-5.319-2.324-5.319-5.264c0-2.604,1.624-4.34,3.724-5.572v-0.084c-1.036-1.4-1.624-2.772-1.624-4.116   c0-2.24,1.513-4.452,4.256-4.452c2.017,0,3.612,1.484,3.612,3.752c0,2.044-1.176,3.556-4.396,5.152v0.084   c1.932,2.268,4.088,4.704,5.487,6.3c0.924-1.4,1.512-3.248,1.96-6.048h1.26c-0.504,3.024-1.231,5.292-2.464,6.832   c0.98,0.98,1.876,1.932,2.996,3.108H162.311z M154.835,34.783c1.932,0,3.556-0.896,4.647-2.156c-1.063-1.26-3.528-3.92-5.964-6.748   c-1.176,0.7-2.996,2.128-2.996,4.564c0,2.52,1.792,4.34,4.284,4.34H154.835z M155.311,17.479c-1.82,0-2.772,1.512-2.772,3.248   c0,1.596,0.757,2.744,1.54,3.808c2.269-1.204,3.809-2.352,3.809-4.256c0-1.344-0.729-2.8-2.548-2.8H155.311z"/>
	<path fill="#808184" d="M172.307,16.976c1.036-0.224,2.436-0.364,3.836-0.364c2.184,0,3.92,0.308,5.124,1.456   c1.12,0.98,1.624,2.548,1.624,4.144c0,2.044-0.616,3.5-1.596,4.536c-1.177,1.26-3.053,1.82-4.593,1.82   c-0.252,0-0.476,0-0.728-0.028v7.028h-3.668V16.976z M175.975,25.571c0.196,0.028,0.392,0.028,0.616,0.028   c1.848,0,2.66-1.316,2.66-3.08c0-1.652-0.673-2.94-2.381-2.94c-0.336,0-0.672,0.056-0.896,0.14V25.571z"/>
	<path fill="#808184" d="M188.043,31.255l-0.84,4.312h-3.557l4.088-18.872h4.396l3.668,18.872h-3.556l-0.812-4.312H188.043z    M191.095,28.399l-0.616-3.948c-0.195-1.148-0.447-3.052-0.615-4.284h-0.084c-0.196,1.26-0.477,3.192-0.673,4.284l-0.699,3.948   H191.095z"/>
	<path fill="#808184" d="M198.991,16.976c1.148-0.224,2.604-0.364,4.004-0.364c2.016,0,3.836,0.308,5.04,1.4   c1.148,1.036,1.512,2.296,1.512,3.92c0,2.016-1.008,3.836-2.912,4.704v0.056c1.288,0.532,1.933,1.708,2.296,3.752   c0.364,2.1,0.868,4.424,1.204,5.124h-3.836c-0.252-0.532-0.672-2.436-0.952-4.536c-0.336-2.324-0.924-2.996-2.128-2.996h-0.56   v7.532h-3.668V16.976z M202.659,25.208h0.672c1.596,0,2.492-1.288,2.492-2.94c0-1.624-0.645-2.744-2.269-2.8   c-0.336,0-0.699,0.028-0.896,0.112V25.208z"/>
	<path fill="#808184" d="M215.23,20.083h-3.332v-3.388h10.36v3.388h-3.36v15.484h-3.668V20.083z"/>
	<path fill="#808184" d="M225.31,35.567V16.695h3.36l2.911,7.392c0.589,1.456,1.484,3.892,2.017,5.516h0.056   c-0.112-1.988-0.364-5.264-0.364-8.736v-4.172h3.221v18.872h-3.36l-2.884-7.168c-0.645-1.596-1.484-4.004-1.932-5.684h-0.057   c0.112,1.904,0.252,4.816,0.252,8.624v4.228H225.31z"/>
	<path fill="#808184" d="M248.829,27.279h-4.284v5.096h4.844v3.192h-8.512V16.695h8.204v3.192h-4.536v4.34h4.284V27.279z"/>
	<path fill="#808184" d="M253.029,16.976c1.148-0.224,2.604-0.364,4.004-0.364c2.016,0,3.836,0.308,5.04,1.4   c1.148,1.036,1.512,2.296,1.512,3.92c0,2.016-1.008,3.836-2.912,4.704v0.056c1.288,0.532,1.933,1.708,2.296,3.752   c0.364,2.1,0.868,4.424,1.204,5.124h-3.836c-0.252-0.532-0.672-2.436-0.952-4.536c-0.336-2.324-0.924-2.996-2.128-2.996h-0.56   v7.532h-3.668V16.976z M256.697,25.208h0.672c1.596,0,2.492-1.288,2.492-2.94c0-1.624-0.645-2.744-2.269-2.8   c-0.336,0-0.699,0.028-0.896,0.112V25.208z"/>
</g>
</svg>